<svg xmlns="http://www.w3.org/2000/svg" viewBox="0 0 244 366"><polygon fill="#BE1E2D" points="0 0 0 244 122 366 244 244 244 0 "/><path fill="#FFFFFF" d="M17.6 68.1c1.1 0 2.7-0.1 3.3-0.1 0.6 0 2.1 0.1 3.5 0.1 0.5 0 0.8-0.1 0.8-0.4 0-0.2-0.2-0.2-0.5-0.2 -0.3 0-0.8 0-1.4-0.2 -0.6-0.1-1-0.4-1-1.1 0-0.5 0-1 0.1-1.6l1.8-13.1h0.1c1.2 2.5 3.2 6.5 3.5 7.2 0.4 0.9 3.1 6.1 3.9 7.6 0.5 1 0.9 1.7 1.2 1.7 0.3 0 0.5-0.3 1.2-1.9l7.3-15h0.1l2 14.6c0.1 0.9 0 1.4-0.2 1.4 -0.2 0.1-0.4 0.2-0.4 0.4 0 0.2 0.2 0.3 1 0.4 1.3 0.1 6 0.2 6.8 0.2 0.3 0 0.5 0 0.6-0.1 1 0 1.8-0.1 2-0.1 1 0 2.5 0.1 3.6 0.1 0.4 0 0.6-0.1 0.6-0.3 0-0.2-0.1-0.3-0.5-0.3h-0.5c-1 0-1.3-0.4-1.3-1 0-0.4 0.2-1.2 0.5-2.1l1.8-4.6c0.1-0.2 0.1-0.3 0.3-0.3h7.5c0.2 0 0.3 0.1 0.3 0.2l2.7 6.9c0.2 0.4-0.1 0.7-0.3 0.8 -0.3 0-0.5 0.1-0.5 0.3 0 0.2 0.4 0.2 1 0.3 2.7 0.1 5.2 0.1 6.4 0.1 1.2 0 1.5-0.1 1.5-0.3 0-0.2-0.2-0.3-0.4-0.3 -0.4 0-0.9 0-1.4-0.1 -0.7-0.2-1.7-0.6-3-3.7 -2.2-5.1-7.5-18.6-8.3-20.4 -0.3-0.8-0.5-1.1-0.8-1.1 -0.3 0-0.5 0.4-0.9 1.3l-8.4 20.9c-0.7 1.7-1.3 2.8-2.9 3 -0.1 0-0.2 0-0.3 0 -0.3-0.1-0.6-0.1-1-0.2 -1-0.3-1.3-1.3-1.6-3.4l-3.1-20.6c-0.1-0.7-0.3-1-0.6-1 -0.3 0-0.5 0.3-0.7 0.8l-9.2 19 -9.2-18.7c-0.4-0.9-0.6-1-0.9-1 -0.3 0-0.5 0.3-0.6 0.9l-3.3 21.7c-0.2 1.1-0.4 2.5-1.4 2.7 -0.5 0.1-0.7 0.1-1 0.1 -0.3 0-0.5 0.1-0.5 0.2C17 68 17.3 68.1 17.6 68.1zM61.6 49.4c0-0.1 0.1-0.3 0.2-0.3s0.1 0.2 0.2 0.3l3 8.3c0 0.1 0 0.2-0.2 0.2h-6.2c-0.1 0-0.2-0.1-0.1-0.2L61.6 49.4zM72.4 47.2c0.2 0 0.3-0.1 0.4-0.4s0.2-0.7 0.6-1.2c0.5-0.7 1.3-0.9 3.3-1l5-0.1v13.8c0 3.1 0 5.8-0.2 7.2 -0.1 1-0.3 1.7-1 1.9 -0.3 0.1-0.7 0.1-1.2 0.1 -0.4 0-0.5 0.1-0.5 0.3 0 0.2 0.2 0.3 0.7 0.3 1.3 0 3.5-0.1 4.2-0.1 0.9 0 3.1 0.1 5.3 0.1 0.4 0 0.6-0.1 0.6-0.3 0-0.2-0.2-0.3-0.5-0.3 -0.5 0-1.2-0.1-1.7-0.1 -1-0.1-1.2-0.9-1.3-1.8 -0.2-1.4-0.2-4.1-0.2-7.2V44.5l4.2 0.1c3 0.1 3.9 1 4 1.9l0 0.4c0 0.5 0.1 0.7 0.4 0.7 0.2 0 0.3-0.2 0.3-0.5 0-0.9 0.1-3.2 0.1-3.9 0-0.5 0-0.7-0.3-0.7 -0.1 0-0.4 0.1-0.9 0.2 -0.5 0.1-1.2 0.2-2.3 0.2H78.1c-1.1 0-2.4-0.1-3.4-0.2 -0.8-0.1-1.2-0.4-1.4-0.4 -0.2 0-0.3 0.2-0.4 0.6 -0.1 0.3-0.7 3.3-0.7 3.9C72.1 47.1 72.2 47.2 72.4 47.2zM100.3 64.9c3.1 2.7 6.9 3.7 11.5 3.7 2.2 0 4.7-0.2 6.1-0.8 0.6-0.2 0.7-0.4 0.9-1 0.3-1.1 0.7-4.1 0.7-4.5 0-0.3-0.1-0.5-0.3-0.5 -0.3 0-0.3 0.1-0.4 0.7 -0.1 0.6-0.6 1.6-1.1 2.2 -1.3 1.5-3.2 1.9-6.2 1.9 -4.5 0-10.6-4-10.6-12 0-3.3 0.6-6.5 3.1-8.7 1.5-1.3 3.4-2.1 6.3-2.1 3.1 0 5.7 0.9 6.8 2.1 0.8 0.9 1.3 2.1 1.3 3.1 0 0.5 0.1 0.7 0.3 0.7 0.3 0 0.4-0.3 0.4-0.8 0.1-0.7 0-2.5 0.1-3.6 0.1-1.2 0.2-1.6 0.2-1.9 0-0.2-0.1-0.4-0.5-0.4 -1-0.1-2.1-0.4-3.4-0.6 -1.5-0.2-2.8-0.3-4.9-0.3 -5 0-8.2 1.3-10.6 3.6 -3.2 3-3.9 6.9-3.9 9.2C96.1 58.2 97 62 100.3 64.9zM123.1 43.3c0.5 0 1 0 1.3 0.1 1.1 0.2 1.4 0.8 1.4 1.9 0.1 1.1 0.1 2 0.1 7.1v5.9c0 3.1 0 5.8-0.2 7.2 -0.1 1-0.3 1.7-1 1.9 -0.3 0.1-0.7 0.1-1.2 0.1 -0.4 0-0.5 0.1-0.5 0.3 0 0.2 0.2 0.3 0.7 0.3 1.3 0 3.5-0.1 4.2-0.1 0.9 0 3.1 0.1 5.3 0.1 0.4 0 0.7-0.1 0.7-0.3 0-0.2-0.2-0.3-0.5-0.3 -0.5 0-1.2-0.1-1.7-0.1 -1-0.1-1.2-0.9-1.3-1.8 -0.2-1.4-0.2-4.1-0.2-7.2v-3c0-0.2 0.1-0.2 0.2-0.2h12.9c0.1 0 0.2 0.1 0.2 0.2v3c0 3.1 0 5.8-0.2 7.2 -0.1 1-0.3 1.7-1 1.9 -0.3 0.1-0.7 0.1-1.2 0.1 -0.4 0-0.5 0.1-0.5 0.3 0 0.2 0.2 0.3 0.7 0.3 1.3 0 3.4-0.1 4.2-0.1 0.9 0 3.1 0.1 5.3 0.1 0.4 0 0.7-0.1 0.7-0.3 0-0.2-0.2-0.3-0.5-0.3 -0.5 0-1.2-0.1-1.7-0.1 -1-0.1-1.2-0.9-1.3-1.8 -0.2-1.4-0.2-4.1-0.2-7.2v-5.9c0-5.1 0-6.1 0.1-7.1 0.1-1.2 0.3-1.8 1.2-1.9 0.4-0.1 0.7-0.1 1-0.1 0.4 0 0.6-0.1 0.6-0.3 0-0.2-0.2-0.3-0.7-0.3 -1.3 0-3.4 0.1-4.2 0.1 -0.9 0-3-0.1-4.8-0.1 -0.5 0-0.7 0.1-0.7 0.3 0 0.2 0.2 0.3 0.6 0.3 0.5 0 1 0 1.3 0.1 1.1 0.2 1.4 0.8 1.4 1.9 0.1 1.1 0.1 2 0.1 7.1v0.7c0 0.2-0.1 0.2-0.2 0.2h-12.9c-0.1 0-0.2-0.1-0.2-0.2v-0.7c0-5.1 0-6.1 0.1-7.1 0.1-1.2 0.3-1.8 1.2-1.9 0.4-0.1 0.7-0.1 1-0.1 0.4 0 0.6-0.1 0.6-0.3 0-0.2-0.2-0.3-0.7-0.3 -1.3 0-3.4 0.1-4.2 0.1 -0.9 0-3-0.1-4.8-0.1 -0.5 0-0.7 0.1-0.7 0.3C122.5 43.2 122.7 43.3 123.1 43.3zM155.4 43.3c0.4 0 0.8 0 1.2 0.1 0.7 0.2 1.1 0.7 1.1 1.9 0.1 1.1 0.1 2 0.1 7.1v5.9c0 3.3 0 5.9-0.2 7.3 -0.1 1-0.3 1.5-1 1.7 -0.3 0.1-0.7 0.1-1.2 0.1 -0.4 0-0.5 0.1-0.5 0.3 0 0.2 0.2 0.3 0.7 0.3 1.3 0 3.5-0.1 4.2-0.1 0.9 0 3 0.1 5.3 0.1 0.4 0 0.6-0.1 0.6-0.3 0-0.2-0.2-0.3-0.5-0.3 -0.5 0-1.2-0.1-1.7-0.1 -1-0.1-1.2-0.7-1.3-1.7 -0.1-1.4-0.1-4.1-0.1-7.4v-5.9c0-5.1 0-6.1 0.1-7.1 0.1-1.2 0.3-1.8 1.2-1.9 0.4-0.1 0.7-0.1 1-0.1 0.3 0 0.5-0.1 0.5-0.3 0-0.2-0.3-0.3-0.7-0.3 -1.3 0-3.3 0.1-4.1 0.1 -1 0-3.1-0.1-4.4-0.1 -0.5 0-0.8 0.1-0.8 0.3C154.8 43.2 155 43.3 155.4 43.3zM169 68.1c1.8 0 3.3-0.1 3.6-0.1 0.6 0 2 0.1 4.2 0.1 0.5 0 0.8-0.1 0.8-0.3 0-0.2-0.2-0.3-0.6-0.3 -0.5 0-1.2 0-1.8-0.2 -0.7-0.2-1.1-1.1-1.2-3.7l-0.4-14h0.1c0.6 0.6 4.3 4.7 8 8.4 3.5 3.5 7.8 7.9 9.9 9.9 0.4 0.4 0.8 0.7 1.1 0.7 0.3 0 0.4-0.3 0.4-1l0.4-21.2c0-1.9 0.3-2.6 1.2-2.9 0.4-0.1 0.7-0.1 1-0.1 0.4 0 0.6-0.1 0.6-0.3 0-0.3-0.3-0.3-0.8-0.3 -1.7 0-2.9 0.1-3.3 0.1 -0.7 0-2.3-0.1-4.1-0.1 -0.5 0-0.9 0-0.9 0.3 0 0.2 0.1 0.3 0.5 0.3 0.5 0 1.3 0 1.8 0.2 0.8 0.3 1.1 1 1.1 3l0.3 15.1h-0.2c-0.6-0.5-5.1-5.4-7.4-7.7 -4.9-4.9-10-10.3-10.4-10.7 -0.6-0.6-0.9-1-1.2-1 -0.3 0-0.4 0.5-0.4 1.1l-0.3 19.8c0 2.9-0.2 3.9-1 4.2 -0.5 0.1-1.1 0.2-1.5 0.2 -0.3 0-0.5 0.1-0.5 0.3C168.2 68.1 168.5 68.1 169 68.1zM214.7 68.6c2.6 0 5.9-0.4 8.1-1.5 0.4-0.2 0.4-0.3 0.4-1.2v-3.7c0-1.7 0-3 0-4 0-1.2 0.4-1.8 1.3-1.9 0.4-0.1 0.6-0.1 0.9-0.1 0.2 0 0.4-0.1 0.4-0.3 0-0.3-0.2-0.3-0.7-0.3 -1.1 0-2.9 0.1-3.9 0.1 -1 0-3.1-0.1-4.9-0.1 -0.5 0-0.7 0.1-0.7 0.3 0 0.2 0.2 0.3 0.5 0.3 0.5 0 1 0 1.3 0.1 1.1 0.2 1.4 0.8 1.4 1.9 0 1 0 2.3 0 4v3.2c0 0.6-0.1 1-0.6 1.2 -0.8 0.4-2 0.4-2.9 0.4 -7.1 0-11.7-5.4-11.7-12.7 0-4.1 1.2-6.7 3.1-8.2 2.4-2 4.8-2.1 6.7-2.1 3.8 0 6.5 1.5 7.5 2.6 0.9 0.9 1 2 1.1 2.8 0 0.3 0.1 0.4 0.3 0.4 0.3 0 0.4-0.2 0.4-0.7 0-4.2 0.2-5.2 0.2-5.5 0-0.2-0.1-0.4-0.5-0.4 -0.8 0-2-0.2-2.7-0.4 -0.7-0.1-3.6-0.5-6-0.5 -2.8 0-5.8 0.2-9.1 2.2 -3.1 1.9-5.9 5.6-5.9 11C199.2 64.7 206.5 68.6 214.7 68.6zM32.9 89.2c4.7-3.9 9.6-4.2 13.4-4.2 7.6 0 13 3.1 15 5.3 1.8 1.9 2.1 4 2.3 5.6 0.1 0.5 0.2 0.9 0.7 0.9 0.5 0 0.7-0.3 0.7-1.4 0-8.4 0.5-10.3 0.5-11.1 0-0.5-0.1-0.7-0.9-0.8 -1.6-0.1-3.9-0.5-5.3-0.7 -1.3-0.3-7.3-1.1-11.9-1.1 -5.7 0-11.7 0.5-18.1 4.4 -6.1 3.7-11.7 11.3-11.7 22.1 0 18.6 14.6 26.4 31.2 26.4 5.3 0 11.9-0.7 16.3-3 0.8-0.5 0.9-0.6 0.9-2.4v-7.4c0-3.4 0-6.1 0.1-8.1 0.1-2.4 0.7-3.5 2.6-3.8 0.8-0.1 1.3-0.2 1.8-0.2 0.5 0 0.9-0.1 0.9-0.5 0-0.5-0.5-0.7-1.3-0.7 -2.2 0-5.8 0.2-7.9 0.2 -2 0-6.3-0.2-9.8-0.2 -0.9 0-1.4 0.1-1.4 0.7 0 0.4 0.4 0.5 1 0.5 0.9 0 2.1 0.1 2.6 0.2 2.2 0.5 2.8 1.6 2.9 3.8 0.1 2 0.1 4.6 0.1 8v6.3c0 1.1-0.3 2-1.3 2.5 -1.6 0.7-4 0.7-5.7 0.7 -14.2 0-23.5-10.9-23.5-25.4C26.6 97.5 29.1 92.4 32.9 89.2zM93 84.4L76 126.2c-1.3 3.4-2.6 5.7-5.7 6.1 -0.5 0.1-1.5 0.1-2.1 0.1 -0.5 0-0.8 0.1-0.8 0.5 0 0.5 0.4 0.7 1.3 0.7 3.5 0 7.2-0.2 8-0.2 2.1 0 5 0.2 7.2 0.2 0.7 0 1.1-0.1 1.1-0.7 0-0.4-0.2-0.5-1-0.5h-1c-2.1 0-2.7-0.9-2.7-2.1 0-0.8 0.3-2.4 1-4.1l3.6-9.2c0.1-0.4 0.3-0.5 0.6-0.5h15c0.3 0 0.5 0.1 0.7 0.5l5.4 13.9c0.3 0.8-0.1 1.4-0.6 1.6 -0.7 0.1-0.9 0.2-0.9 0.6 0 0.5 0.8 0.5 2 0.5 5.4 0.1 10.3 0.1 12.8 0.1 0.3 0 0.6 0 0.9 0 0 0 0.1 0 0.1 0 2.2 0 5.4-0.2 6.7-0.2 1.2 0 4.3 0.2 7.1 0.2 1 0 1.6-0.1 1.6-0.7 0-0.3-0.5-0.5-1-0.5 -0.7 0-1.6-0.1-2.8-0.3 -1.1-0.3-2-0.9-2-2.2 0-1.1 0.1-2 0.2-3.2l3.5-26.3h0.3c2.4 5.1 6.4 13 7 14.4 0.8 1.9 6.1 12.2 7.8 15.3 1.1 2 1.8 3.4 2.4 3.4s0.9-0.6 2.5-3.8l14.7-30.1h0.3l4 29.4c0.3 1.9 0.1 2.8-0.3 2.9 -0.5 0.2-0.7 0.4-0.7 0.7 0 0.4 0.4 0.6 2 0.7 2.7 0.2 12 0.3 13.7 0.3 0.9 0 1.8-0.2 1.8-0.7 0-0.4-0.5-0.5-1.1-0.5 -0.9 0-2.2-0.1-4.2-0.7 -2-0.6-2.7-2.6-3.3-6.8l-6.1-41.3c-0.2-1.4-0.6-2.1-1.2-2.1 -0.6 0-0.9 0.5-1.5 1.6l-18.4 38 -18.4-37.5c-0.9-1.8-1.3-2.1-1.8-2.1 -0.5 0-0.9 0.6-1.1 1.8l-6.7 43.5c-0.3 2.3-0.9 4.9-2.8 5.3 -0.6 0.1-1 0.2-1.4 0.2 -0.7 0-1.4-0.1-2.1-0.3 -1.4-0.3-3.4-1.3-5.9-7.4 -4.3-10.3-15.1-37.2-16.7-41 -0.7-1.6-1.1-2.2-1.7-2.2C94.2 81.7 93.8 82.4 93 84.4zM99.6 112.7c0.1 0.2 0 0.4-0.3 0.4H86.8c-0.3 0-0.3-0.2-0.3-0.5l6.2-16.5c0.1-0.3 0.2-0.6 0.4-0.6 0.2 0 0.3 0.3 0.3 0.6L99.6 112.7zM191.6 83.2c0 0.5 0.4 0.6 1.1 0.6 0.9 0 2.1 0.1 2.6 0.2 2.2 0.5 2.8 1.6 2.9 3.8 0.1 2.2 0.1 4 0.1 14.3v11.9c0 6.2 0 11.5-0.3 14.4 -0.3 2-0.6 3.4-2 3.7 -0.6 0.1-1.4 0.3-2.4 0.3 -0.8 0-1.1 0.2-1.1 0.5 0 0.5 0.5 0.7 1.3 0.7 1.3 0 3.1-0.1 4.7-0.1 1.6-0.1 3.1-0.1 3.8-0.1 2 0 4.1 0.1 7 0.2 2.9 0.1 6.6 0.2 11.7 0.2 2.6 0 3.2 0 3.6-1.8 0.3-1.3 0.9-5.9 0.9-7.5 0-0.7 0-1.2-0.5-1.2 -0.5 0-0.6 0.3-0.7 1 -0.5 2.8-1.3 4.2-3 5 -1.8 0.8-4.6 0.8-6.3 0.8 -6.9 0-8-1-8.1-5.7 -0.1-2 0-8.2 0-10.5v-5.3c0-0.4 0.1-0.7 0.4-0.7 1.6 0 8.3 0.1 9.6 0.2 2.5 0.3 3.4 1.3 3.8 2.6 0.2 0.9 0.2 1.8 0.3 2.4 0 0.3 0.1 0.6 0.6 0.6 0.6 0 0.6-0.7 0.6-1.3 0-0.5 0.2-3.2 0.3-4.5 0.3-3.4 0.5-4.5 0.5-4.9 0-0.4-0.2-0.5-0.5-0.5 -0.3 0-0.6 0.3-1.1 0.9 -0.6 0.7-1.6 0.9-3.2 1 -1.6 0.1-9.3 0.1-10.8 0.1 -0.4 0-0.5-0.3-0.5-0.7V86.9c0-0.5 0.1-0.7 0.5-0.7 1.3 0 8.4 0.1 9.6 0.3 3.4 0.4 4 1.2 4.5 2.4 0.3 0.8 0.4 2 0.4 2.4 0 0.6 0.1 0.9 0.6 0.9 0.5 0 0.6-0.4 0.7-0.7 0.1-0.8 0.3-3.8 0.3-4.5 0.2-3.1 0.5-3.9 0.5-4.4 0-0.3-0.1-0.6-0.4-0.6 -0.3 0-0.7 0.2-1.1 0.3 -0.5 0.1-1.6 0.3-2.9 0.4 -1.3 0.1-14.7 0.1-16.9 0.1 -0.9 0-2.5-0.1-4.3-0.1 -1.7 0-3.6-0.1-5.5-0.1C192 82.6 191.6 82.8 191.6 83.2zM147.6 151.7c0.3 0 0.4-0.4 0.4-0.7 0-0.4 0.1-2.6 0.2-3 0.1-1 0.3-1.4 0.3-1.7 0-0.2-0.1-0.4-0.3-0.4 -0.2 0-0.4 0.2-0.6 0.2 -0.4 0.1-0.9 0.1-1.6 0.2 -0.9 0-9.5 0-11 0 -1.1 0-3.6-0.1-5.5-0.1 -0.6 0-0.9 0.1-0.9 0.4s0.3 0.4 0.7 0.4c0.6 0 1.2 0 1.5 0.1 1.2 0.3 1.6 0.7 1.7 2 0 1.2 0 2.2 0 7.9v6.6c0 3.6 0 6.4-0.2 7.9 -0.1 1.1-0.4 1.8-1.1 2 -0.4 0.1-0.8 0.1-1.4 0.1 -0.4 0-0.6 0.2-0.6 0.4 0 0.3 0.3 0.4 0.8 0.4 1.4 0 3.9-0.1 4.9-0.1 1 0 3.7 0.1 6.2 0.1 0.6 0 0.8-0.1 0.8-0.4 0-0.2-0.2-0.4-0.7-0.4 -0.5 0-1.4 0-1.9-0.1 -1.1-0.2-1.4-0.9-1.5-2 -0.2-1.6-0.2-4.2-0.2-7.8v-3.1c0-0.3 0.1-0.3 0.3-0.3 0.7 0 5.2 0 6.2 0.1 1.2 0.1 1.7 0.8 1.8 1.4 0.2 0.4 0.3 0.9 0.3 1.1 0 0.3 0.1 0.5 0.4 0.5 0.4 0 0.4-0.5 0.4-0.8 0-0.3 0-2 0.1-2.7 0.1-1.2 0.3-2.2 0.3-2.4 0-0.2-0.1-0.4-0.2-0.4 -0.2 0-0.3 0.2-0.5 0.4 -0.4 0.5-0.9 0.6-1.6 0.7 -0.6 0-1.1 0-1.8 0l-5.4 0c-0.2 0-0.3-0.1-0.3-0.4v-9c0-0.4 0.1-0.5 0.4-0.5l6.4 0.1c1.4 0 2.2 0.6 2.5 1.1 0.3 0.5 0.2 1.1 0.2 1.4C147.1 151.5 147.4 151.7 147.6 151.7zM94.5 160.4c0 6.6 4.6 14.6 15.8 14.6 10 0 16.2-6.7 16.2-15.3 0-8.6-6.1-14-15.8-14C99 145.8 94.5 154.1 94.5 160.4zM109.8 147.8v25.1c-0.5-0.1-1-0.2-1.4-0.3v-24.7c0.4 0 0.8-0.1 1.1-0.1C109.7 147.8 109.7 147.8 109.8 147.8zM100.2 159.3c0-7.2 3.1-10.2 6.5-11.1v23.7C102.6 169.7 100.2 165 100.2 159.3zM111.5 173v-25c0.5 0.1 1 0.2 1.4 0.4V173c-0.4 0-0.8 0.1-1.1 0.1C111.8 173 111.7 173 111.5 173zM120.8 161.1c0 7.8-3.3 10.5-6.1 11.5v-23.5C118.3 151.1 120.8 155.3 120.8 161.1zM226.2 184.3c-0.2 0-0.5 0.1-1.2 0.2 -0.7 0.1-1.7 0.2-3.1 0.2H24.3c-1.5 0-3.2-0.1-4.5-0.2 -1.1-0.1-1.6-0.5-1.9-0.5 -0.3 0-0.4 0.3-0.5 0.9 -0.1 0.4-0.9 4.5-0.9 5.2 0 0.5 0.1 0.7 0.4 0.7 0.3 0 0.4-0.2 0.5-0.5 0.1-0.4 0.3-0.9 0.8-1.6 0.7-1 1.8-1.2 4.4-1.3l6.7-0.2v18.5c0 4.1 0 7.7-0.2 9.6 -0.1 1.3-0.4 2.3-1.3 2.5 -0.4 0.1-0.9 0.2-1.6 0.2 -0.5 0-0.7 0.1-0.7 0.4 0 0.3 0.3 0.5 0.9 0.5 1.8 0 4.6-0.1 5.7-0.1 1.3 0 4.1 0.1 7.1 0.1 0.5 0 0.9-0.1 0.9-0.5 0-0.2-0.2-0.4-0.7-0.4 -0.7 0-1.7-0.1-2.3-0.2 -1.4-0.2-1.6-1.2-1.8-2.4 -0.2-1.9-0.2-5.5-0.2-9.6v-18.5l185.4 0.1c4 0.1 5.2 1.4 5.3 2.5l0 0.5c0 0.7 0.1 0.9 0.5 0.9 0.3 0 0.4-0.3 0.4-0.7 0-1.2 0.1-4.3 0.1-5.2C226.6 184.6 226.5 184.3 226.2 184.3zM77.2 217.9c-0.6 0-1.5 0-2-0.1 -1.2-0.2-1.4-0.9-1.5-1.9 -0.2-1.6-0.2-4.6-0.2-8v-6.6c0-5.7 0-6.7 0.1-7.9 0.1-1.3 0.4-1.8 1.4-2 0.5-0.1 0.8-0.1 1.1-0.1 0.4 0 0.7-0.1 0.7-0.4 0-0.3-0.3-0.4-0.8-0.4 -1.5 0-4 0.1-5 0.1 -1 0-3.7-0.1-5.8-0.1 -0.6 0-0.8 0.1-0.8 0.4 0 0.3 0.2 0.4 0.7 0.4 0.5 0 1.2 0 1.5 0.1 1.2 0.4 1.6 0.7 1.7 2 0 1.2 0.1 2.6 0.1 8.2v0.8c0 0.2-0.1 0.3-0.2 0.3H53.4c-0.1 0-0.3 0-0.3-0.3v-0.8c0-5.7 0-7 0.1-8.2 0.1-1.3 0.4-1.8 1.5-2 0.4-0.1 0.8-0.1 1.1-0.1 0.5 0 0.7-0.1 0.7-0.4 0-0.3-0.3-0.4-0.8-0.4 -1.5 0-4.2 0.1-5.1 0.1 -1.1 0-3.6-0.1-5.7-0.1 -0.5 0-0.8 0.1-0.8 0.4 0 0.3 0.3 0.4 0.7 0.4 0.6 0 1.2 0 1.5 0.1 1.2 0.4 1.6 0.7 1.7 2 0 1.2 0 2.2 0 7.9v6.6c0 3.4 0 6.4-0.2 8 -0.1 1.1-0.4 1.8-1.1 2 -0.4 0.1-0.8 0.1-1.4 0.1 -0.5 0-0.6 0.2-0.6 0.4 0 0.3 0.3 0.4 0.7 0.4 1.5 0 4.1-0.1 5-0.1 1.1 0 3.8 0.1 6.3 0.1 0.5 0 0.8-0.1 0.8-0.4 0-0.2-0.2-0.4-0.6-0.4 -0.6 0-1.5 0-2-0.1 -1.1-0.2-1.4-0.9-1.5-1.9 -0.2-1.6-0.2-4.5-0.2-7.9V205c0-0.2 0.1-0.2 0.3-0.2H68c0.1 0 0.2 0.1 0.2 0.2v2.9c0 3.4 0 6.3-0.2 7.9 -0.1 1.1-0.4 1.8-1.1 2 -0.4 0.1-0.8 0.1-1.4 0.1 -0.4 0-0.6 0.2-0.6 0.4 0 0.3 0.3 0.4 0.8 0.4 1.5 0 4.2-0.1 5.1-0.1 1.1 0 3.6 0.1 6.1 0.1 0.5 0 0.8-0.1 0.8-0.4C77.8 218.1 77.5 217.9 77.2 217.9zM110.3 217.9c-0.3 0-0.5 0-0.9-0.1 -0.6-0.1-2-0.3-4.1-2.5 -2.3-2.3-5.1-5.7-8.5-9.9 3.8-3 5.4-5.5 5.4-8.3 0-2.5-1.6-4.4-2.7-5.1 -2.1-1.4-4.9-1.6-7.3-1.6 -1.2 0-4.7 0.1-6 0.1 -0.8 0-3.3-0.1-5.3-0.1 -0.6 0-0.9 0.1-0.9 0.4 0 0.3 0.3 0.4 0.7 0.4 0.6 0 1.2 0 1.5 0.1 1.2 0.4 1.6 0.7 1.7 2 0 1.2 0 2.2 0 7.9v6.6c0 3.4 0 6.4-0.2 8 -0.1 1.1-0.4 1.8-1.1 2 -0.4 0.1-0.8 0.1-1.4 0.1 -0.5 0-0.6 0.2-0.6 0.4 0 0.3 0.3 0.4 0.7 0.4 1.5 0 4-0.1 4.7-0.1 0.6 0 3.8 0.1 6 0.1 0.5 0 0.8-0.1 0.8-0.4 0-0.2-0.2-0.4-0.5-0.4 -0.5 0-1.3 0-1.9-0.1 -1.2-0.2-1.4-0.9-1.5-2 -0.2-1.6-0.2-4.5-0.2-8v-0.5c0-0.2 0.1-0.3 0.3-0.3l3.5 0.1c0.3 0 0.5 0 0.7 0.3 0.5 0.6 2.1 3.1 3.6 5.1 2.2 2.9 3.6 4.7 5.3 5.5 1 0.5 2.1 0.7 4.2 0.7h3.7c0.5 0 0.7-0.1 0.7-0.4C110.8 218.1 110.6 217.9 110.3 217.9zM94.7 204.5c-0.7 0.5-1.2 0.6-2.7 0.6 -1 0-2.1-0.1-2.9-0.4 -0.3-0.1-0.4-0.3-0.4-0.7V193c0-0.3 0.1-0.4 0.4-0.5 0.4-0.1 1.3-0.1 2.3-0.1 2.3 0 5.9 1.4 5.9 6.6C97.2 202.1 95.9 203.7 94.7 204.5zM124.6 189.9c-11.7 0-16.2 8.3-16.2 14.6 0 6.6 4.6 14.6 15.8 14.6 10 0 16.2-6.7 16.2-15.3C140.4 195.3 134.4 189.9 124.6 189.9zM123.8 191.9V217c-0.5-0.1-1-0.2-1.4-0.3v-24.7c0.4 0 0.8-0.1 1.1-0.1C123.6 191.9 123.7 191.9 123.8 191.9zM114.1 203.4c0-7.3 3.1-10.2 6.6-11.2v23.7C116.5 213.8 114.1 209 114.1 203.4zM125.4 217.1V192c0.5 0.1 1 0.2 1.4 0.4v24.7c-0.4 0-0.8 0.1-1.1 0.1C125.7 217.1 125.6 217.1 125.4 217.1zM128.6 216.7v-23.5c3.6 2 6.1 6.2 6.1 12.1C134.7 213 131.4 215.8 128.6 216.7zM172.8 190.4c-1.9 0-3.3 0.1-3.8 0.1 -0.8 0-2.9-0.1-4.9-0.1 -0.6 0-1 0-1 0.4 0 0.2 0.1 0.4 0.6 0.4 0.5 0 1.5 0 2 0.2 0.9 0.4 1.3 1 1.3 3.3l0.4 16.6h-0.2c-0.6-0.5-5.7-5.8-8.4-8.4 -5.6-5.5-11.4-11.4-11.9-11.9 -0.7-0.7-1.2-1.2-1.7-1.2 -0.4 0-0.7 0.5-0.7 1.3l-0.4 22.2c0 3.3-0.2 4.3-1.2 4.5 -0.5 0.1-1.2 0.2-1.8 0.2 -0.4 0-0.6 0.2-0.6 0.4 0 0.4 0.4 0.4 0.9 0.4 2 0 3.8-0.1 4.2-0.1 0.7 0 2.5 0.1 5 0.1 0.5 0 0.9-0.1 0.9-0.4 0-0.2-0.2-0.4-0.7-0.4 -0.6 0-1.4 0-2-0.3 -0.7-0.3-1.2-1.1-1.3-4l-0.4-15.3h0.1c0.7 0.7 4.8 5.2 9.1 9.2 4 3.9 8.9 8.5 11.3 10.8 0.4 0.4 0.9 0.8 1.6 0.8 0.3 0 0.6-0.4 0.6-1.2l0.4-23.6c0-2.1 0.4-2.8 1.4-3.1 0.5-0.1 0.8-0.1 1.2-0.1 0.4 0 0.7-0.2 0.7-0.4C173.6 190.4 173.3 190.4 172.8 190.4zM196.1 212.8c-0.3 0-0.4 0.2-0.4 0.6 -0.3 1.5-0.7 2.3-1.7 2.8 -1 0.4-2.6 0.5-3.6 0.5 -4 0-5.1-0.6-5.2-3.1 0-1.1 0-4.3 0-5.5v-3c0-0.2 0-0.4 0.2-0.4 1 0 5.4 0.1 6.1 0.2 1.5 0.1 1.9 0.7 2.2 1.5 0.1 0.5 0.1 1 0.1 1.4 0 0.2 0.1 0.3 0.4 0.3 0.4 0 0.4-0.5 0.4-0.8 0-0.3 0.1-1.8 0.2-2.5 0.2-1.9 0.3-2.5 0.3-2.7 0-0.2-0.1-0.4-0.3-0.4 -0.2 0-0.3 0.2-0.6 0.5 -0.4 0.4-0.9 0.5-1.8 0.6 -0.9 0.1-5.9 0.1-6.8 0.1 -0.2 0-0.3-0.2-0.3-0.4v-9.2c0-0.2 0.1-0.4 0.3-0.4 0.8 0 5.4 0.1 6.1 0.2 1.9 0.2 2.2 0.7 2.6 1.4 0.2 0.4 0.3 1.1 0.3 1.4 0 0.3 0 0.5 0.3 0.5 0.3 0 0.4-0.4 0.4-0.6 0.1-0.4 0.2-2.1 0.2-2.5 0.1-1.7 0.3-2.2 0.3-2.4 0-0.2 0-0.4-0.3-0.4 -0.2 0-0.4 0.1-0.6 0.2 -0.3 0-0.9 0.2-1.6 0.2 -0.7 0-9.3 0-10.6 0 -1.1 0-3.6-0.1-5.6-0.1 -0.6 0-0.9 0.1-0.9 0.4 0 0.3 0.3 0.4 0.7 0.4 0.6 0 1.2 0 1.5 0.1 1.2 0.4 1.6 0.7 1.7 2 0 1.2 0 2.2 0 7.9v6.6c0 3.4 0 6.4-0.2 8 -0.1 1.1-0.4 1.8-1.1 2 -0.4 0.1-0.8 0.1-1.4 0.1 -0.5 0-0.6 0.2-0.6 0.4 0 0.3 0.3 0.4 0.7 0.4 0.8 0 1.8 0 2.7-0.1 0.9 0 1.8 0 2.2 0 1.1 0 2.6 0 4.5 0.1 1.9 0.1 4.2 0.1 7.1 0.1 1.5 0 1.8 0 2.1-1 0.2-0.7 0.5-3.3 0.5-4.1C196.4 213.3 196.4 212.8 196.1 212.8zM210.7 201.6l-1.6-0.9c-3.5-1.9-4.1-3.3-4.1-4.9 0-2.6 2.5-4 5.3-4 2.5 0 3.7 1.1 4.3 1.8 0.8 1 1 2.1 1 2.5 0 0.4 0.1 0.7 0.4 0.7 0.3 0 0.5-0.4 0.5-1.2 0-2.9 0.1-4 0.1-4.5 0-0.3-0.2-0.4-0.5-0.5 -1-0.3-3-0.6-5.5-0.6 -5.4 0-9.8 2.9-9.8 7.5 0 3.3 1.5 5.8 6.1 8.5l2.2 1.3c3.4 2 3.8 3.6 3.8 5.3 0 2.6-2 4.7-5.4 4.7 -2.4 0-5.3-0.9-6.2-3.7 -0.2-0.7-0.4-1.5-0.4-1.9 0-0.3 0-0.6-0.4-0.6 -0.3 0-0.5 0.4-0.5 1 0 0.6-0.2 2.9-0.2 5 0 0.8 0.1 1 0.7 1.3 1.7 0.7 4 1 6.3 1 2.1 0 4.6-0.2 6.5-1.5 2.8-2 3.9-4.2 3.9-7C217.4 207.2 215.8 204.4 210.7 201.6z"/></svg>