<svg xmlns="http://www.w3.org/2000/svg" viewBox="0 0 405.1 62.7">
<path fill="#BE1E2D" d="M65.8 20.7c0.4 0 0.6-0.1 0.6-0.3 0-0.1-0.2-0.2-0.4-0.2 -0.3 0-0.6 0-1.1-0.1 -0.5-0.1-0.8-0.4-0.8-0.9 0-0.4 0-0.8 0.1-1.3l1.4-10.5h0.1c0.9 2 2.6 5.2 2.8 5.8 0.3 0.8 2.5 4.9 3.1 6.1 0.4 0.8 0.7 1.3 0.9 1.3 0.2 0 0.4-0.2 1-1.5l5.9-12h0.1l1.6 11.7c0.1 0.8 0 1.1-0.1 1.2 -0.2 0.1-0.3 0.2-0.3 0.3 0 0.2 0.2 0.2 0.8 0.3 1.1 0.1 4.8 0.1 5.5 0.1 0.2 0 0.4 0 0.6-0.1 0.4 0 0.8 0 0.9 0 0.8 0 2 0.1 2.9 0.1 0.3 0 0.5-0.1 0.5-0.3 0-0.2-0.1-0.2-0.4-0.2h-0.4c-0.8 0-1.1-0.3-1.1-0.8 0-0.3 0.1-1 0.4-1.6l1.5-3.7c0.1-0.2 0.1-0.2 0.2-0.2h6c0.1 0 0.2 0.1 0.3 0.2l2.2 5.5c0.1 0.3-0.1 0.6-0.2 0.6 -0.3 0-0.4 0.1-0.4 0.2 0 0.2 0.3 0.2 0.8 0.2 2.2 0.1 4.1 0.1 5.1 0.1 1 0 1.2-0.1 1.2-0.3 0-0.2-0.1-0.2-0.4-0.2 -0.3 0-0.7 0-1.1-0.1 -0.6-0.1-1.3-0.5-2.4-2.9 -1.7-4.1-6-14.9-6.7-16.3C96.1 0.2 96 0 95.7 0c-0.3 0-0.4 0.3-0.8 1.1l-6.8 16.7c-0.5 1.3-1 2.2-2.1 2.4 -0.2 0-0.3-0.1-0.5-0.1 -0.8-0.2-1.1-1-1.3-2.7L81.8 0.8C81.7 0.3 81.6 0 81.3 0s-0.4 0.2-0.6 0.6l-7.3 15.2 -7.4-15C65.7 0.1 65.5 0 65.3 0c-0.2 0-0.4 0.2-0.5 0.7L62.2 18c-0.1 0.9-0.3 2-1.1 2.1 -0.4 0.1-0.6 0.1-0.8 0.1 -0.3 0-0.4 0.1-0.4 0.2 0 0.2 0.2 0.3 0.5 0.3 0.9 0 2.2-0.1 2.7-0.1C63.5 20.7 64.7 20.7 65.8 20.7zM94.9 5.7c0-0.1 0.1-0.2 0.2-0.2 0.1 0 0.1 0.1 0.1 0.2l2.4 6.6c0 0.1 0 0.2-0.1 0.2h-5c-0.1 0-0.1-0.1-0.1-0.2L94.9 5.7z"/><path fill="#BE1E2D" d="M102.9 4c0.2 0 0.2-0.1 0.3-0.3 0.1-0.2 0.2-0.5 0.5-0.9 0.4-0.6 1.1-0.7 2.6-0.8l4-0.1v11c0 2.5 0 4.6-0.1 5.7 -0.1 0.8-0.2 1.4-0.8 1.5 -0.2 0.1-0.6 0.1-1 0.1 -0.3 0-0.4 0.1-0.4 0.2 0 0.2 0.2 0.3 0.5 0.3 1.1 0 2.8-0.1 3.4-0.1 0.8 0 2.5 0.1 4.2 0.1 0.3 0 0.5-0.1 0.5-0.3 0-0.1-0.1-0.2-0.4-0.2 -0.4 0-1-0.1-1.4-0.1 -0.8-0.1-1-0.7-1.1-1.5 -0.1-1.2-0.1-3.3-0.1-5.8v-11L117 2c2.4 0.1 3.1 0.8 3.2 1.5l0 0.3c0 0.4 0.1 0.5 0.3 0.5 0.2 0 0.2-0.2 0.2-0.4 0-0.7 0.1-2.6 0.1-3.1 0-0.4 0-0.6-0.2-0.6 -0.1 0-0.3 0.1-0.7 0.1 -0.4 0.1-1 0.1-1.9 0.1h-10.7c-0.9 0-1.9-0.1-2.7-0.1C104 0.3 103.7 0 103.5 0c-0.2 0-0.2 0.2-0.3 0.5 -0.1 0.2-0.6 2.7-0.6 3.1C102.6 3.9 102.7 4 102.9 4z"/><path fill="#BE1E2D" d="M124.5 18.2c2.5 2.1 5.5 2.9 9.2 2.9 1.7 0 3.8-0.2 4.8-0.6 0.5-0.2 0.6-0.3 0.7-0.8 0.3-0.9 0.6-3.3 0.6-3.6 0-0.2-0.1-0.4-0.2-0.4 -0.2 0-0.3 0.1-0.4 0.5 -0.1 0.5-0.5 1.3-0.9 1.8 -1.1 1.2-2.5 1.5-4.9 1.5 -3.6 0-8.5-3.2-8.5-9.6 0-2.6 0.5-5.2 2.5-7 1.2-1.1 2.7-1.7 5.1-1.7 2.5 0 4.6 0.7 5.5 1.7 0.7 0.7 1 1.6 1.1 2.5 0 0.4 0.1 0.6 0.3 0.6 0.2 0 0.3-0.2 0.3-0.6 0.1-0.5 0-2 0.1-2.9 0.1-0.9 0.1-1.3 0.1-1.5 0-0.2-0.1-0.3-0.4-0.3 -0.8-0.1-1.7-0.3-2.7-0.5 -1.2-0.2-2.2-0.3-3.9-0.3 -4 0-6.6 1.1-8.5 2.9 -2.6 2.4-3.2 5.5-3.2 7.4C121.1 12.8 121.8 15.9 124.5 18.2z"/><path fill="#BE1E2D" d="M164.1 20.7c0.3 0 0.5-0.1 0.5-0.3 0-0.1-0.1-0.2-0.4-0.2 -0.4 0-1-0.1-1.4-0.1 -0.8-0.1-1-0.7-1.1-1.5 -0.1-1.2-0.1-3.3-0.1-5.8V8.2c0-4.1 0-4.8 0.1-5.7 0.1-0.9 0.3-1.4 1-1.5 0.3-0.1 0.6-0.1 0.8-0.1 0.3 0 0.5-0.1 0.5-0.2 0-0.2-0.2-0.2-0.6-0.2 -1.1 0-2.7 0.1-3.4 0.1 -0.7 0-2.4-0.1-3.9-0.1 -0.4 0-0.6 0.1-0.6 0.2 0 0.2 0.2 0.2 0.5 0.2 0.4 0 0.8 0 1.1 0.1 0.9 0.2 1.1 0.6 1.2 1.5 0.1 0.9 0.1 1.6 0.1 5.7v0.6c0 0.1-0.1 0.2-0.2 0.2h-10.3c-0.1 0-0.2-0.1-0.2-0.2V8.2c0-4.1 0-4.8 0.1-5.7 0.1-0.9 0.3-1.4 1-1.5 0.3-0.1 0.6-0.1 0.8-0.1 0.3 0 0.5-0.1 0.5-0.2 0-0.2-0.2-0.2-0.6-0.2 -1.1 0-2.7 0.1-3.4 0.1 -0.7 0-2.4-0.1-3.9-0.1 -0.4 0-0.6 0.1-0.6 0.2 0 0.2 0.2 0.2 0.5 0.2 0.4 0 0.8 0 1.1 0.1 0.9 0.2 1.1 0.6 1.2 1.5 0.1 0.9 0.1 1.6 0.1 5.7v4.7c0 2.5 0 4.6-0.1 5.7 -0.1 0.8-0.2 1.4-0.8 1.5 -0.2 0.1-0.6 0.1-1 0.1 -0.3 0-0.4 0.1-0.4 0.2 0 0.2 0.2 0.3 0.5 0.3 1.1 0 2.8-0.1 3.4-0.1 0.8 0 2.5 0.1 4.2 0.1 0.3 0 0.5-0.1 0.5-0.3 0-0.1-0.1-0.2-0.4-0.2 -0.4 0-1-0.1-1.4-0.1 -0.8-0.1-1-0.7-1.1-1.5 -0.1-1.2-0.1-3.3-0.1-5.8v-2.4c0-0.1 0.1-0.2 0.2-0.2h10.3c0.1 0 0.2 0.1 0.2 0.2v2.4c0 2.5 0 4.6-0.1 5.7 -0.1 0.8-0.2 1.4-0.8 1.5 -0.2 0.1-0.6 0.1-1 0.1 -0.3 0-0.4 0.1-0.4 0.2 0 0.2 0.2 0.3 0.6 0.3 1.1 0 2.7-0.1 3.4-0.1C160.6 20.7 162.3 20.7 164.1 20.7z"/><path fill="#BE1E2D" d="M167.2 0.9c0.3 0 0.7 0 1 0.1 0.6 0.1 0.9 0.6 0.9 1.5 0.1 0.9 0.1 1.6 0.1 5.7v4.7c0 2.6 0 4.7-0.1 5.9 -0.1 0.8-0.2 1.2-0.8 1.3 -0.2 0.1-0.6 0.1-1 0.1 -0.3 0-0.4 0.1-0.4 0.2 0 0.2 0.2 0.3 0.5 0.3 1.1 0 2.8-0.1 3.4-0.1 0.7 0 2.4 0.1 4.2 0.1 0.3 0 0.5-0.1 0.5-0.3 0-0.1-0.1-0.2-0.4-0.2 -0.4 0-1-0.1-1.4-0.1 -0.8-0.1-1-0.6-1.1-1.3 -0.1-1.2-0.1-3.3-0.1-5.9V8.2c0-4.1 0-4.8 0.1-5.7 0.1-0.9 0.3-1.4 1-1.5 0.3-0.1 0.5-0.1 0.8-0.1 0.3 0 0.4-0.1 0.4-0.3 0-0.2-0.2-0.2-0.6-0.2 -1 0-2.6 0.1-3.3 0.1 -0.8 0-2.5-0.1-3.5-0.1 -0.4 0-0.6 0.1-0.6 0.2C166.8 0.8 166.9 0.9 167.2 0.9z"/><path fill="#BE1E2D" d="M183.8 20.3c-0.4 0-0.9 0-1.4-0.2 -0.5-0.2-0.9-0.9-0.9-3l-0.3-11.2h0.1c0.5 0.5 3.5 3.8 6.4 6.7 2.8 2.8 6.2 6.3 7.9 7.9 0.3 0.3 0.6 0.6 0.9 0.6 0.2 0 0.4-0.2 0.4-0.8l0.3-17c0-1.5 0.2-2.1 1-2.3 0.3-0.1 0.5-0.1 0.8-0.1 0.3 0 0.5-0.1 0.5-0.2 0-0.2-0.3-0.2-0.6-0.2 -1.3 0-2.3 0.1-2.6 0.1 -0.6 0-1.9-0.1-3.3-0.1 -0.4 0-0.7 0-0.7 0.2 0 0.2 0.1 0.2 0.4 0.2 0.4 0 1 0 1.4 0.2 0.6 0.3 0.9 0.8 0.9 2.4l0.3 12.1h-0.1c-0.5-0.4-4.1-4.3-5.9-6.1 -3.9-3.9-8-8.2-8.3-8.6 -0.5-0.5-0.7-0.8-1-0.8 -0.3 0-0.4 0.4-0.4 0.9l-0.2 15.9c0 2.3-0.1 3.1-0.8 3.3 -0.4 0.1-0.9 0.1-1.2 0.1 -0.3 0-0.4 0.1-0.4 0.2 0 0.2 0.2 0.3 0.6 0.3 1.4 0 2.7-0.1 2.9-0.1 0.5 0 1.6 0.1 3.3 0.1 0.4 0 0.6-0.1 0.6-0.3C184.3 20.3 184.1 20.3 183.8 20.3z"/><path fill="#BE1E2D" d="M213.4 21.1c2.1 0 4.7-0.3 6.5-1.2 0.3-0.2 0.4-0.2 0.4-1v-3c0-1.3 0-2.4 0-3.2 0-0.9 0.3-1.4 1-1.5 0.3-0.1 0.5-0.1 0.7-0.1 0.2 0 0.3-0.1 0.3-0.2 0-0.2-0.2-0.3-0.5-0.3 -0.9 0-2.3 0.1-3.2 0.1 -0.8 0-2.5-0.1-3.9-0.1 -0.4 0-0.6 0.1-0.6 0.3 0 0.2 0.2 0.2 0.4 0.2 0.4 0 0.8 0 1.1 0.1 0.9 0.2 1.1 0.6 1.2 1.5 0 0.8 0 1.8 0 3.2v2.5c0 0.5-0.1 0.8-0.5 1 -0.6 0.3-1.6 0.3-2.3 0.3 -5.7 0-9.4-4.3-9.4-10.1 0-3.3 1-5.3 2.5-6.6 1.9-1.6 3.9-1.7 5.3-1.7 3 0 5.2 1.2 6 2.1 0.7 0.8 0.8 1.6 0.9 2.2 0 0.2 0.1 0.4 0.3 0.4 0.2 0 0.3-0.1 0.3-0.6 0-3.4 0.2-4.1 0.2-4.4 0-0.2-0.1-0.3-0.4-0.3 -0.6 0-1.6-0.2-2.1-0.3 -0.5-0.1-2.9-0.4-4.8-0.4 -2.3 0-4.7 0.2-7.2 1.8 -2.5 1.5-4.7 4.5-4.7 8.8C200.9 18 206.8 21.1 213.4 21.1z"/><path fill="#BE1E2D" d="M90.1 48.7c0.5-0.1 0.7-0.1 1-0.1 0.3 0 0.5-0.1 0.5-0.3 0-0.3-0.3-0.4-0.8-0.4 -1.3 0-3.3 0.1-4.4 0.1 -1.1 0-3.5-0.1-5.5-0.1 -0.5 0-0.8 0.1-0.8 0.4 0 0.2 0.2 0.3 0.6 0.3 0.5 0 1.2 0 1.5 0.1 1.3 0.3 1.6 0.9 1.6 2.2 0 1.1 0 2.6 0 4.5V59c0 0.6-0.2 1.1-0.7 1.4 -0.9 0.4-2.2 0.4-3.2 0.4 -8 0-13.2-6.1-13.2-14.3 0-4.7 1.4-7.5 3.5-9.3 2.7-2.2 5.4-2.4 7.5-2.4 4.3 0 7.3 1.7 8.5 3 1 1.1 1.2 2.3 1.3 3.2 0 0.3 0.1 0.5 0.4 0.5 0.3 0 0.4-0.2 0.4-0.8 0-4.7 0.3-5.8 0.3-6.2 0-0.3-0.1-0.4-0.5-0.5 -0.9 0-2.2-0.3-3-0.4 -0.8-0.2-4.1-0.6-6.7-0.6 -3.2 0-6.6 0.3-10.2 2.5 -3.5 2.1-6.6 6.3-6.6 12.4 0 10.5 8.2 14.9 17.6 14.9 3 0 6.7-0.4 9.2-1.7 0.5-0.3 0.5-0.3 0.5-1.4v-4.2c0-1.9 0-3.4 0-4.6C88.7 49.6 89 48.9 90.1 48.7z"/><path fill="#BE1E2D" d="M155.7 61.6c-0.5 0-1.3 0-2.4-0.4 -1.1-0.3-1.5-1.4-1.9-3.8L148 34.1c-0.1-0.8-0.3-1.2-0.7-1.2s-0.5 0.3-0.8 0.9l-10.3 21.4 -10.4-21.1c-0.5-1-0.7-1.2-1-1.2 -0.3 0-0.5 0.3-0.6 1l-3.8 24.5c-0.2 1.3-0.5 2.8-1.6 3 -0.1 0-0.2 0-0.3 0.1 -0.2 0-0.5-0.1-0.7-0.1 -0.8-0.2-1.9-0.7-3.3-4.1 -2.4-5.8-8.5-21-9.4-23.1 -0.4-0.9-0.6-1.2-1-1.2 -0.4 0-0.6 0.4-1.1 1.5L93.5 58c-0.8 1.9-1.5 3.2-3.2 3.4 -0.3 0-0.8 0.1-1.2 0.1 -0.3 0-0.5 0.1-0.5 0.3 0 0.3 0.2 0.4 0.7 0.4 2 0 4.1-0.1 4.5-0.1 1.2 0 2.8 0.1 4 0.1 0.4 0 0.6-0.1 0.6-0.4 0-0.2-0.1-0.3-0.6-0.3h-0.6c-1.2 0-1.5-0.5-1.5-1.2 0-0.5 0.2-1.4 0.6-2.3l2.1-5.2c0.1-0.2 0.2-0.3 0.3-0.3h8.5c0.2 0 0.3 0.1 0.4 0.3l3 7.8c0.2 0.5-0.1 0.8-0.3 0.9 -0.4 0-0.5 0.1-0.5 0.3 0 0.3 0.5 0.3 1.1 0.3 2.8 0.1 5.3 0.1 6.8 0.1 0 0 0 0 0 0 0 0 0 0 0 0 0.1 0 0.3 0 0.4 0 0.5 0 0.8 0 1.1 0 0.9 0 1.8-0.1 2.3-0.1 0.7 0 2.4 0.1 4 0.1 0.6 0 0.9-0.1 0.9-0.4 0-0.2-0.3-0.3-0.6-0.3 -0.4 0-0.9 0-1.6-0.2 -0.6-0.2-1.1-0.5-1.1-1.2 0-0.6 0-1.1 0.1-1.8l2-14.8h0.2c1.3 2.8 3.6 7.3 4 8.1 0.5 1.1 3.5 6.9 4.4 8.6 0.6 1.1 1 1.9 1.3 1.9 0.3 0 0.5-0.3 1.4-2.1l8.3-16.9h0.2l2.3 16.5c0.2 1.1 0 1.6-0.2 1.6 -0.3 0.1-0.4 0.2-0.4 0.4 0 0.2 0.2 0.3 1.1 0.4 1.5 0.1 6.8 0.2 7.7 0.2 0.5 0 1-0.1 1-0.4C156.3 61.6 156.1 61.6 155.7 61.6zM106.6 50.6h-7c-0.2 0-0.2-0.1-0.2-0.3l3.5-9.3c0-0.2 0.1-0.3 0.2-0.3s0.2 0.2 0.2 0.3l3.4 9.3C106.8 50.5 106.7 50.6 106.6 50.6z"/><path fill="#BE1E2D" d="M175.5 56.4c-0.3 0-0.3 0.2-0.4 0.6 -0.3 1.6-0.7 2.4-1.7 2.8 -1 0.5-2.6 0.5-3.6 0.5 -3.9 0-4.5-0.6-4.6-3.2 0-1.1 0-4.6 0-5.9v-3c0-0.2 0-0.4 0.2-0.4 0.9 0 4.7 0 5.4 0.1 1.4 0.2 1.9 0.7 2.1 1.5 0.1 0.5 0.1 1 0.2 1.4 0 0.2 0.1 0.3 0.3 0.3 0.3 0 0.3-0.4 0.3-0.7 0-0.3 0.1-1.8 0.2-2.5 0.2-1.9 0.3-2.5 0.3-2.8s-0.1-0.3-0.3-0.3c-0.2 0-0.3 0.2-0.6 0.5 -0.3 0.4-0.9 0.5-1.8 0.6 -0.9 0.1-5.2 0.1-6.1 0.1 -0.2 0-0.3-0.2-0.3-0.4v-9.6c0-0.3 0.1-0.4 0.3-0.4 0.8 0 4.7 0.1 5.4 0.2 1.9 0.2 2.3 0.7 2.5 1.4 0.2 0.5 0.2 1.1 0.2 1.4 0 0.3 0.1 0.5 0.3 0.5s0.3-0.2 0.4-0.4c0.1-0.5 0.2-2.1 0.2-2.5 0.1-1.7 0.3-2.2 0.3-2.5 0-0.2 0-0.3-0.2-0.3 -0.2 0-0.4 0.1-0.6 0.2 -0.3 0.1-0.9 0.2-1.6 0.2 -0.7 0-8.3 0-9.5 0 -0.5 0-1.4 0-2.4-0.1 -0.9 0-2.1 0-3.1 0 -0.6 0-0.8 0.1-0.8 0.3 0 0.3 0.2 0.3 0.6 0.3 0.5 0 1.2 0 1.5 0.1 1.3 0.3 1.6 0.9 1.6 2.2 0.1 1.2 0.1 2.3 0.1 8.1v6.7c0 3.5 0 6.5-0.2 8.1 -0.2 1.1-0.3 1.9-1.1 2.1 -0.3 0.1-0.8 0.2-1.4 0.2 -0.5 0-0.6 0.1-0.6 0.3 0 0.3 0.3 0.4 0.8 0.4 0.8 0 1.7-0.1 2.6-0.1 0.9 0 1.7 0 2.2 0 1.1 0 2.3 0 4 0.1 1.6 0 3.7 0.1 6.6 0.1 1.4 0 1.8 0 2.1-1 0.2-0.8 0.5-3.3 0.5-4.2C175.8 56.7 175.8 56.4 175.5 56.4z"/><path fill="#BE1E2D" d="M222.2 42.2c-0.1 0-0.3 0.1-0.4 0.1 -0.3 0.1-0.6 0.1-1.1 0.1 -0.6 0-6.3 0-7.3 0 -0.7 0-2.4-0.1-3.7-0.1 -0.4 0-0.6 0.1-0.6 0.2s0.2 0.3 0.4 0.3c0.4 0 0.8 0 1 0.1 0.8 0.2 1.1 0.5 1.1 1.3 0 0.8 0 1.5 0 5.3V54c0 2.4 0 4.2-0.1 5.3 -0.1 0.7-0.2 1.2-0.8 1.3 -0.2 0.1-0.5 0.1-0.9 0.1 -0.3 0-0.4 0.1-0.4 0.3 0 0.2 0.2 0.3 0.5 0.3 1 0 2.6-0.1 3.3-0.1 0.7 0 2.5 0.1 4.1 0.1 0.4 0 0.6-0.1 0.6-0.3 0-0.1-0.1-0.3-0.4-0.3 -0.3 0-0.9 0-1.3-0.1 -0.8-0.1-0.9-0.6-1-1.3 -0.1-1.1-0.1-2.8-0.1-5.2v-2c0-0.2 0.1-0.2 0.2-0.2 0.4 0 3.5 0 4.1 0.1 0.8 0.1 1.1 0.6 1.2 0.9 0.1 0.3 0.2 0.6 0.2 0.8 0 0.2 0.1 0.4 0.2 0.4 0.3 0 0.3-0.4 0.3-0.6 0-0.2 0-1.3 0.1-1.8 0.1-0.8 0.2-1.5 0.2-1.6 0-0.1-0.1-0.2-0.1-0.2 -0.1 0-0.2 0.1-0.3 0.3 -0.2 0.3-0.6 0.4-1.1 0.4 -0.4 0-0.7 0-1.2 0l-3.6 0c-0.1 0-0.2-0.1-0.2-0.2v-6c0-0.3 0.1-0.4 0.2-0.4l4.3 0.1c1 0 1.5 0.4 1.6 0.8 0.2 0.4 0.1 0.7 0.1 0.9 0 0.3 0.1 0.4 0.3 0.4 0.2 0 0.2-0.3 0.3-0.5 0-0.3 0.1-1.8 0.1-2 0.1-0.6 0.2-0.9 0.2-1.1C222.3 42.4 222.3 42.2 222.2 42.2z"/><path fill="#BE1E2D" d="M197.2 42.2c-7.8 0-10.8 5.5-10.8 9.7 0 4.4 3 9.7 10.5 9.7 6.6 0 10.8-4.5 10.8-10.2C207.7 45.8 203.7 42.2 197.2 42.2zM196.6 43.5v16.7c-0.3-0.1-0.6-0.1-0.9-0.2V43.6c0.3 0 0.5 0 0.7 0C196.5 43.5 196.6 43.5 196.6 43.5zM190.2 51.2c0-4.8 2.1-6.8 4.4-7.4v15.8C191.8 58.1 190.2 54.9 190.2 51.2zM197.8 60.3V43.6c0.3 0.1 0.6 0.1 0.9 0.2v16.4c-0.3 0-0.5 0-0.7 0C197.9 60.3 197.8 60.3 197.8 60.3zM199.8 60V44.4c2.4 1.3 4.1 4.2 4.1 8C203.9 57.6 201.7 59.4 199.8 60z"/><path fill="#BE1E2D" d="M404.8 32.9c-0.2 0-0.5 0.1-1 0.2 -0.6 0.1-1.4 0.2-2.6 0.2H234.7c-1.3 0-2.7-0.1-3.8-0.2 -0.9-0.1-1.3-0.5-1.6-0.5 -0.2 0-0.3 0.2-0.5 0.7 -0.1 0.3-0.8 3.8-0.8 4.4 0 0.4 0.1 0.6 0.3 0.6 0.2 0 0.3-0.2 0.4-0.5 0.1-0.3 0.3-0.8 0.6-1.3 0.6-0.8 1.5-1 3.7-1.1l5.7-0.2v15.6c0 3.5 0 6.5-0.2 8.1 -0.1 1.1-0.3 1.9-1.1 2.1 -0.3 0.1-0.8 0.2-1.4 0.2 -0.5 0-0.6 0.1-0.6 0.3 0 0.3 0.3 0.4 0.8 0.4 1.5 0 3.9-0.1 4.8-0.1 1.1 0 3.5 0.1 6 0.1 0.4 0 0.7-0.1 0.7-0.4 0-0.2-0.2-0.3-0.6-0.3 -0.6 0-1.4-0.1-1.9-0.2 -1.1-0.2-1.4-1-1.5-2.1 -0.2-1.6-0.2-4.6-0.2-8.1V35.2l156.3 0.1c3.4 0.1 4.4 1.1 4.5 2.1l0 0.4c0 0.6 0.1 0.8 0.4 0.8 0.2 0 0.3-0.2 0.3-0.6 0-1 0.1-3.6 0.1-4.4C405.1 33.1 405.1 32.9 404.8 32.9z"/><path fill="#BE1E2D" d="M279.2 61.2c-0.5 0-1.2 0-1.7-0.1 -1-0.1-1.2-0.7-1.3-1.6 -0.1-1.4-0.1-3.9-0.1-6.7v-5.6c0-4.8 0-5.7 0.1-6.7 0.1-1.1 0.3-1.6 1.2-1.7 0.4-0.1 0.7-0.1 1-0.1 0.4 0 0.6-0.1 0.6-0.3 0-0.2-0.2-0.3-0.7-0.3 -1.3 0-3.4 0.1-4.2 0.1 -0.9 0-3.2-0.1-4.9-0.1 -0.5 0-0.7 0.1-0.7 0.3 0 0.2 0.2 0.3 0.6 0.3 0.4 0 1 0 1.3 0.1 1 0.3 1.3 0.6 1.4 1.7 0 1 0.1 2.2 0.1 6.9V48c0 0.2-0.1 0.2-0.2 0.2h-12.3c-0.1 0-0.2 0-0.2-0.2v-0.7c0-4.8 0-5.9 0.1-6.9 0.1-1.1 0.3-1.6 1.2-1.7 0.4-0.1 0.7-0.1 0.9-0.1 0.4 0 0.6-0.1 0.6-0.3 0-0.2-0.2-0.3-0.7-0.3 -1.3 0-3.6 0.1-4.3 0.1 -0.9 0-3-0.1-4.8-0.1 -0.4 0-0.7 0.1-0.7 0.3 0 0.2 0.2 0.3 0.6 0.3 0.5 0 1 0 1.3 0.1 1 0.3 1.3 0.6 1.4 1.7 0 1 0 1.9 0 6.7v5.6c0 2.9 0 5.4-0.1 6.7 -0.1 0.9-0.3 1.5-1 1.7 -0.3 0.1-0.7 0.1-1.1 0.1 -0.4 0-0.5 0.2-0.5 0.3 0 0.2 0.2 0.3 0.6 0.3 1.3 0 3.4-0.1 4.2-0.1 0.9 0 3.2 0.1 5.3 0.1 0.4 0 0.7-0.1 0.7-0.3 0-0.1-0.1-0.3-0.5-0.3 -0.5 0-1.2 0-1.7-0.1 -1-0.1-1.1-0.7-1.3-1.6 -0.1-1.4-0.2-3.8-0.2-6.7v-2.4c0-0.1 0.1-0.2 0.2-0.2h12.3c0.1 0 0.2 0.1 0.2 0.2v2.4c0 2.9 0 5.3-0.1 6.6 -0.1 0.9-0.3 1.5-1 1.7 -0.3 0.1-0.7 0.1-1.2 0.1 -0.4 0-0.5 0.2-0.5 0.3 0 0.2 0.3 0.3 0.7 0.3 1.3 0 3.6-0.1 4.3-0.1 0.9 0 3 0.1 5.2 0.1 0.4 0 0.7-0.1 0.7-0.3C279.7 61.4 279.5 61.2 279.2 61.2z"/><path fill="#BE1E2D" d="M307.1 61.2c-0.3 0-0.4 0-0.8-0.1 -0.5-0.1-1.7-0.3-3.5-2.1 -2-2-4.3-4.8-7.2-8.4 3.2-2.6 4.5-4.6 4.5-7 0-2.1-1.4-3.7-2.3-4.3 -1.7-1.1-4.1-1.3-6.2-1.3 -1 0-4 0.1-5.1 0.1 -0.7 0-2.7-0.1-4.4-0.1 -0.5 0-0.7 0.1-0.7 0.3 0 0.2 0.2 0.3 0.6 0.3 0.5 0 1 0 1.3 0.1 1 0.3 1.3 0.6 1.4 1.7 0 1 0 1.9 0 6.7v5.6c0 2.9 0 5.4-0.1 6.7 -0.1 0.9-0.3 1.5-1 1.7 -0.3 0.1-0.7 0.1-1.1 0.1 -0.4 0-0.5 0.2-0.5 0.3 0 0.2 0.2 0.3 0.6 0.3 1.3 0 3.4-0.1 4-0.1 0.5 0 3.2 0.1 5.1 0.1 0.4 0 0.7-0.1 0.7-0.3 0-0.1-0.1-0.3-0.4-0.3 -0.4 0-1.1 0-1.6-0.1 -1-0.1-1.1-0.7-1.3-1.7 -0.1-1.3-0.2-3.8-0.2-6.7v-0.4c0-0.2 0.1-0.3 0.3-0.3l2.9 0.1c0.2 0 0.4 0 0.6 0.2 0.4 0.5 1.8 2.6 3.1 4.3 1.8 2.4 3 3.9 4.4 4.6 0.9 0.4 1.7 0.6 3.6 0.6h3.1c0.4 0 0.6-0.1 0.6-0.3C307.5 61.4 307.4 61.2 307.1 61.2zM294 49.9c-0.6 0.4-1 0.5-2.3 0.5 -0.8 0-1.8-0.1-2.5-0.3 -0.2-0.1-0.3-0.2-0.3-0.6v-9.4c0-0.3 0.1-0.4 0.3-0.4 0.3-0.1 1.1-0.1 1.9-0.1 1.9 0 5 1.1 5 5.6C296.1 47.8 295 49.2 294 49.9z"/><path fill="#BE1E2D" d="M319.2 37.6c-9.9 0-13.7 7-13.7 12.3 0 5.6 3.9 12.3 13.3 12.3 8.4 0 13.7-5.7 13.7-12.9C332.5 42.1 327.4 37.6 319.2 37.6zM318.5 39.2v21.1c-0.4-0.1-0.8-0.2-1.2-0.3V39.3c0.3 0 0.6-0.1 0.9-0.1C318.3 39.2 318.4 39.2 318.5 39.2zM310.3 48.9c0-6.1 2.6-8.6 5.5-9.4v20C312.4 57.7 310.3 53.7 310.3 48.9zM319.9 60.5V39.4c0.4 0.1 0.8 0.2 1.2 0.3v20.8c-0.3 0-0.6 0.1-0.9 0.1C320.1 60.5 320 60.5 319.9 60.5zM322.5 60.2V40.3c3.1 1.7 5.2 5.3 5.2 10.2C327.7 57 324.9 59.4 322.5 60.2z"/><path fill="#BE1E2D" d="M359.8 38c-1.6 0-2.8 0.1-3.2 0.1 -0.7 0-2.4-0.1-4.2-0.1 -0.5 0-0.8 0-0.8 0.3 0 0.2 0.1 0.3 0.5 0.3 0.4 0 1.2 0 1.7 0.2 0.8 0.3 1.1 0.9 1.1 2.8l0.3 14h-0.1c-0.5-0.4-4.8-4.9-7-7.1 -4.7-4.6-9.6-9.6-10-10 -0.6-0.6-1-1-1.4-1 -0.3 0-0.6 0.4-0.6 1.1l-0.3 18.7c0 2.7-0.1 3.6-1 3.8 -0.4 0.1-1 0.1-1.5 0.1 -0.3 0-0.5 0.1-0.5 0.3 0 0.3 0.3 0.3 0.7 0.3 1.7 0 3.2-0.1 3.5-0.1 0.6 0 2.1 0.1 4.2 0.1 0.4 0 0.7-0.1 0.7-0.3 0-0.2-0.2-0.3-0.6-0.3 -0.5 0-1.1 0-1.7-0.2 -0.6-0.2-1-1-1.1-3.4l-0.4-12.9h0.1c0.6 0.6 4.1 4.4 7.6 7.8 3.4 3.3 7.5 7.2 9.5 9.1 0.3 0.3 0.8 0.7 1.3 0.7 0.3 0 0.5-0.3 0.5-1l0.4-19.9c0-1.8 0.3-2.3 1.2-2.6 0.4-0.1 0.7-0.1 1-0.1 0.4 0 0.6-0.1 0.6-0.3C360.5 38 360.2 38 359.8 38z"/><path fill="#BE1E2D" d="M379.5 56.9c-0.2 0-0.3 0.1-0.4 0.5 -0.2 1.3-0.6 2-1.4 2.3 -0.9 0.4-2.2 0.4-3.1 0.4 -3.3 0-4.3-0.5-4.4-2.6 0-0.9 0-3.6 0-4.7v-2.5c0-0.2 0-0.3 0.2-0.3 0.8 0 4.5 0.1 5.1 0.1 1.2 0.1 1.6 0.6 1.8 1.2 0.1 0.4 0.1 0.8 0.1 1.1 0 0.1 0.1 0.3 0.3 0.3 0.3 0 0.3-0.4 0.3-0.7 0-0.2 0.1-1.5 0.1-2.1 0.2-1.6 0.3-2.1 0.3-2.3s-0.1-0.3-0.3-0.3c-0.1 0-0.3 0.2-0.5 0.4 -0.3 0.3-0.8 0.4-1.6 0.5 -0.7 0.1-5 0.1-5.7 0.1 -0.2 0-0.2-0.1-0.2-0.3v-7.8c0-0.2 0.1-0.3 0.2-0.3 0.7 0 4.6 0.1 5.1 0.1 1.6 0.1 1.9 0.6 2.2 1.1 0.2 0.4 0.2 0.9 0.2 1.1 0 0.3 0 0.4 0.3 0.4 0.3 0 0.3-0.4 0.4-0.5 0.1-0.4 0.1-1.7 0.2-2.1 0.1-1.4 0.3-1.8 0.3-2 0-0.1 0-0.3-0.2-0.3 -0.1 0-0.3 0.1-0.5 0.1 -0.3 0-0.8 0.1-1.4 0.2 -0.6 0-7.9 0-8.9 0 -0.9 0-3-0.1-4.7-0.1 -0.5 0-0.7 0.1-0.7 0.3 0 0.2 0.2 0.3 0.6 0.3 0.5 0 1 0 1.3 0.1 1 0.3 1.3 0.6 1.4 1.7 0 1 0 1.9 0 6.7v5.6c0 2.9 0 5.4-0.1 6.7 -0.1 0.9-0.3 1.5-1 1.7 -0.3 0.1-0.7 0.1-1.1 0.1 -0.4 0-0.5 0.2-0.5 0.3 0 0.2 0.2 0.3 0.6 0.3 0.7 0 1.5 0 2.3-0.1 0.8 0 1.5 0 1.9 0 1 0 2.2 0 3.8 0.1 1.6 0.1 3.6 0.1 6 0.1 1.2 0 1.5 0 1.7-0.8 0.2-0.6 0.4-2.8 0.4-3.5C379.8 57.3 379.7 56.9 379.5 56.9z"/><path fill="#BE1E2D" d="M391.8 47.4l-1.3-0.7c-2.9-1.6-3.4-2.7-3.4-4.2 0-2.2 2.1-3.4 4.4-3.4 2.1 0 3.2 0.9 3.6 1.5 0.7 0.8 0.9 1.8 0.9 2.1 0 0.4 0.1 0.6 0.3 0.6 0.3 0 0.4-0.3 0.4-1 0-2.5 0.1-3.4 0.1-3.8 0-0.2-0.1-0.3-0.4-0.4 -0.9-0.2-2.5-0.5-4.6-0.5 -4.5 0-8.2 2.5-8.2 6.3 0 2.8 1.3 4.9 5.1 7.2l1.9 1.1c2.9 1.7 3.2 3.1 3.2 4.4 0 2.2-1.7 4-4.5 4 -2 0-4.5-0.8-5.2-3.1 -0.2-0.6-0.3-1.2-0.3-1.6 0-0.2 0-0.5-0.3-0.5 -0.3 0-0.4 0.3-0.4 0.8 0 0.5-0.2 2.5-0.2 4.2 0 0.7 0.1 0.9 0.6 1.1 1.4 0.6 3.4 0.8 5.3 0.8 1.7 0 3.9-0.2 5.4-1.3 2.4-1.7 3.3-3.6 3.3-5.9C397.4 52.2 396.1 49.8 391.8 47.4z"/>
<polygon fill="#BE1E2D" points="0 41.8 20.4 62.2 40.9 41.8 40.9 0.9 0 0.9 "/>
</svg>
